<svg xmlns="http://www.w3.org/2000/svg" viewBox="0 0 40.2002 40.2003"><g id="e206407f-f90e-4e43-9b44-3a3f2b7d2552" data-name="Capa 2"><g id="a1f57586-b745-41fc-8438-aebc7f32e9a3" data-name="Capa 1"><path d="M40.2,20.1A20.1,20.1,0,1,1,20.1,0,20.1,20.1,0,0,1,40.2,20.1" style="fill:#fff"/><path d="M37.6661,20.1324A17.5158,17.5158,0,1,1,20.1515,2.8131,17.4175,17.4175,0,0,1,37.6661,20.1324" style="fill:#005c47"/><path d="M29.8417,20.2923a9.605,9.605,0,1,1-9.6031-9.4182,9.512,9.512,0,0,1,9.6031,9.4182" style="fill:#fff"/><path d="M20.6108,26.8868c-.0215-.3616-.4783-.7776-2.0453-2.0451-2.5661-2.0753-4.6442-2.5108-4.9346-2.4262-.9875.2884-.4262,1.6947-.4262,1.6947s-.2092-.8471.8176-.8471c.82,0,2.8362,1.1011,4.5888,2.5216a10.4611,10.4611,0,0,1,1.3416,1.31c.1411.1237.6961.4232.6581-.2082" style="fill:#d8633e;fill-rule:evenodd"/><path d="M24.46,25.0121S23.1943,23.19,18.8979,20.505c-4.0375-2.5235-6.1127-2.0141-6.4-1.7265s-.6713.48-.6713,2.0139c0,1.9559-.3058-1.2722,1.21-1.2722,2.1019,0,3.2286.5152,6.1322,2.32a18.8644,18.8644,0,0,1,4.332,3.6768s1.1494.8362.9593-.5048" style="fill:#d02f3b;fill-rule:evenodd"/><path d="M26.45,21.187s-1.0166-1.5453-5.313-4.23c-4.0377-2.5235-6.3849-2.2057-6.7789-2.1047a2.855,2.855,0,0,0-1.97,1.6234,3.4084,3.4084,0,0,1,2.6711-.8865c2.0965.1538,3.4449.8983,6.3485,2.703A18.8922,18.8922,0,0,1,25.74,21.9683s1.1491.8367.959-.5045" style="fill:#1d2d52;fill-rule:evenodd"/><path d="M22.5255,20.7966c-.11-.5107-.8156-.934-3.3264-2.4006-4.1111-2.4017-6.3846-1.8406-6.6987-1.5375a2.3424,2.3424,0,0,0-.6926,1.6722s.4691-1.3024,2.4857-1.0041c1.8418.2722,2.6977.67,5.1767,2.2045a11.3966,11.3966,0,0,1,2.1616,1.5061c.2041.1784,1.085.4521.8937-.4406" style="fill:#73154c;fill-rule:evenodd"/><path d="M24.411,17.222c-.09-.4189-.6692-.796-2.7289-2-3.3731-1.97-4.9369-1.9771-5.2953-1.9771a3.1237,3.1237,0,0,0-2.2767.8279,4.7113,4.7113,0,0,1,3.0064-.02,13.1066,13.1066,0,0,1,4.7877,2.265c1.32.92,1.0218.7857,1.7737,1.2656.1871.12.89.3707.7331-.3616" style="fill:#005a89;fill-rule:evenodd"/><path d="M27.0377,17.643c-.0181-.2884-.7626-.9363-2.7324-2.3372-3.2258-2.2933-4.7217-2.627-5.1034-2.7408a3.22,3.22,0,0,0-2.5765.1254,5.8594,5.8594,0,0,1,3.2035.608,18.2589,18.2589,0,0,1,4.677,2.9249c.946.7616.9733.8749,1.6845,1.4116.1776.1337.879.5126.8473.0081" style="fill:#008c4c;fill-rule:evenodd"/><path d="M26.4488,15.8866c-.0137-.2184-.5782-.71-2.0716-1.772a11.7808,11.7808,0,0,0-3.87-2.078,2.44,2.44,0,0,0-1.9536.0947,5.5861,5.5861,0,0,1,2.4292.461A19.7453,19.7453,0,0,1,24.5289,14.81c.7711.52.8467.6635,1.3862,1.07.1343.1015.5577.3887.5337.006" style="fill:#003e33;fill-rule:evenodd"/><path d="M25.4684,13.9418c-.0065-.1045-.2766-.34-.9912-.8478a5.6363,5.6363,0,0,0-1.852-.9944,6.7953,6.7953,0,0,0-1.0722-.23,7.0471,7.0471,0,0,1,1.3.4957A15.0414,15.0414,0,0,1,24.55,13.4269c.369.2485.4051.3174.6634.5121.0644.0484.2668.186.2553.0028" style="fill:#a6bb36;fill-rule:evenodd"/><path d="M22.7005,26.3049c-.0312-.5214-.6905-.8812-2.9513-2.71-3.7022-2.9944-6.4487-3.0947-6.8787-3.0187-1.2251.2161-.6154,2.2043-.6154,2.2043s-.433-1.6428,1.9022-1.2229c1.47.2646,3.1292,1.3486,5.6582,3.3981,1.7236,1.397,1.1179.9333,1.9351,1.65.2038.1784,1.0046.61.95-.3009" style="fill:#cb2f69;fill-rule:evenodd"/><path d="M12.1618,23.751A8.2106,8.2106,0,0,0,14.34,26.57a9.2026,9.2026,0,0,0,5.2442,2.2094,8.1341,8.1341,0,0,0,6.9-2.6493,7.23,7.23,0,0,0,2.4341-4.2116c.1707-.6382-.3864-1.0819-.85-.425a29.025,29.025,0,0,1-2.4343,2.4342,1.4536,1.4536,0,0,1-.0387,1.12c-.3222.7366-2.6272,1.816-3.4393,1.8934-.7348.07-.4246-.4637.0775-.6567a8.6373,8.6373,0,0,0,2.55-1.2367c.4243-.5015.27-1.1591-.657-1.0049s-3.66,2.0157-6.53,1.1457a12.3271,12.3271,0,0,1-4.83-2.4934c-2.0268-1.4306-.7236.8393-.6041,1.0556" style="fill:#78a92d"/><path d="M28.5518,21.169c.28,0,.4774.3334.3662.7494A7.2323,7.2323,0,0,1,26.4838,26.13,8.22,8.22,0,0,1,20.48,28.8249a8.9326,8.9326,0,0,1-.896-.0459A9.2034,9.2034,0,0,1,14.34,26.57a8.21,8.21,0,0,1-2.1779-2.8188c-.0912-.1652-.8716-1.5258-.3358-1.5258a2.0828,2.0828,0,0,1,.94.47,12.33,12.33,0,0,0,4.83,2.4932,5.4627,5.4627,0,0,0,1.5935.2306c2.2409,0,4.1841-1.2506,4.9371-1.3763a1.5737,1.5737,0,0,1,.2576-.0228c.6949,0,.7808.577.3993,1.0276a8.6389,8.6389,0,0,1-2.55,1.237c-.4716.1811-.7741.6629-.2.6629q.0556,0,.1228-.0065c.8119-.0771,3.1172-1.1565,3.4394-1.8934a1.4519,1.4519,0,0,0,.0384-1.12,28.957,28.957,0,0,0,2.4345-2.4345.6332.6332,0,0,1,.4839-.3241m0-.6011h0a1.1916,1.1916,0,0,0-.9749.5786,26.2806,26.2806,0,0,1-2.347,2.3354L25.1,23.6a1.3825,1.3825,0,0,0-.7158-.1807,2.1746,2.1746,0,0,0-.3565.0311,5.876,5.876,0,0,0-1.1561.4113,9.5375,9.5375,0,0,1-3.6823.9569,4.894,4.894,0,0,1-1.419-.2047A10.8252,10.8252,0,0,1,13.5727,22.53c-.1436-.1019-.2962-.21-.46-.3259a2.4267,2.4267,0,0,0-1.2867-.58.7588.7588,0,0,0-.6739.3734c-.2423.4125-.11.9794.471,2.0215l.0125.0225c.0426.0775.0852.1591.13.2448A8.486,8.486,0,0,0,13.9413,27.02a9.8053,9.8053,0,0,0,5.5831,2.3574c.3232.0322.6449.0487.9558.0487a8.8167,8.8167,0,0,0,6.4286-2.8712,7.8494,7.8494,0,0,0,2.5337-4.2387c.0208-.0945.0384-.1763.0562-.2426a1.2825,1.2825,0,0,0-.1855-1.1227A.9565.9565,0,0,0,28.5518,20.5679Z" style="fill:#fff"/><path d="M33.7427,11.0191q-.1914-.2207-.2587-.3111l-.1348-.2172a.1657.1657,0,0,1-.0568-.04l-.0062-.0452-.0436-.022a2.558,2.558,0,0,1-.1607-.2525q-.1158-.1547-.3438-.0345l-.5108.3806q-.2247.1674-.5941.4153a.7765.7765,0,0,1-.1255.148,2.1925,2.1925,0,0,1-.2657.1434,1.0852,1.0852,0,0,1-.1416.1327l-.2043.1522q-.1521.1133-.3546.237l-.0892.0933a2.4912,2.4912,0,0,0-.2321.1457l-.1415.1328a.1491.1491,0,0,0-.0658.0217l-.089.0936a.2011.2011,0,0,1-.0977.0454l-.019.0417a2.5939,2.5939,0,0,0-.2525.1608l-.1723.1283a.5109.5109,0,0,0-.1608.1742l-.1151.0586-.4934.3674-.1853.1107q-.0932.2286-.0672.2636l.3415.4582q.1413.19.3632.0245l1.2962-.9656.1761.2365a.402.402,0,0,1-.0438.514l-.0176.0131q-.1546.1151-.4538.3107a.1651.1651,0,0,1-.04.0567.2061.2061,0,0,0-.0975.0456l-.12.0892-.1068.1066a.0194.0194,0,0,0-.0306-.0046l-.0715.0808c-.0885.0475-.1386.0759-.15.0845q-.1565.144-.0563.278l.3173.4262a.2268.2268,0,0,0,.3262.0478l1.0393-.7744a1.4214,1.4214,0,0,0,.52-.7276l.0173-.013a1.3271,1.3271,0,0,0,.8434-.2879l1.0422-.7762a1.4779,1.4779,0,0,0,.513-.8043,1.573,1.573,0,0,0-.2263-.9437m-.8288.99q-.2452.1827-.76.5393l-.0746.0826a.6437.6437,0,0,0-.1473.0825l-.19.1415q-.3015.0884-.4278-.0808l-.063-.0848a.78.78,0,0,1-.09-.2237l1.5853-1.1809.1651.2219a.4237.4237,0,0,1,.0021.5024" style="fill:#fff"/><path d="M29.66,6.941q-.2645-.1521-.2768-.1334-.1494-.1016-.363.0665L27.17,8.6306a2.4718,2.4718,0,0,0-.4117.4058q-.8426.78-.9142.8853l-.9106.8334q-.0351.2124.07.284l.4691.3183q.1925.1306.5728-.2958l.9752.6618c-.0408.06-.0468.1089-.0178.1467q-.198.3918-.03.5058l.4348.2951q.23.129.34-.0326.0887-.13,2.0528-5.0488a.4149.4149,0,0,0-.14-.6486M28.0125,9.334a8.2054,8.2054,0,0,1-.4841,1.2549l-.1223.18q-.3328-.1713-.4415-.2453l-.0188-.0125-.1362-.1469-.0185-.0127,1.246-1.2138.0185.0125q.0375.0258-.0431.1839" style="fill:#fff"/><path d="M8.7621,8.38a1.8715,1.8715,0,0,1,.8235-.3333,1.369,1.369,0,0,1,1.0338.45l.3687.4054q.1161.1938-.0145.3126l-.4052.369q-.1056.096-.2949-.0006-.1906-.2425-.3372-.4035L9.9212,9.162q-.19-.2079-.5415-.0093-.18.26-.0357.4181l.25.2747q.2805.3083,1.2975.1538a1.7959,1.7959,0,0,1,1.6027.5562l.3386.3717a1.3533,1.3533,0,0,1,.1184,1.73l-.21.2215a1.2349,1.2349,0,0,1-1.54.0977.8152.8152,0,0,1-.2271-.1487q-.0274-.0306-.2485-.3067l-.1936-.1788q-.1617-.1779.3407-.6352.2655-.1653.3891-.03l.3843.422q.1415.1551.4473.0341l.0806-.0732q.2276-.2074-.23-.71a1.1133,1.1133,0,0,0-1.0991-.36q-1.3033.1355-1.6214-.2141-.02.0177-.2711-.1695a1.7274,1.7274,0,0,0-.145-.193c-.02-.022-.0359-.028-.047-.0181l-.0567-.0956L8.5119,10.09A1.5171,1.5171,0,0,1,8.36,9.0146,1.5468,1.5468,0,0,1,8.7621,8.38" style="fill:#fff"/><path d="M5.2874,12.8088l.1921-.318c.053-.088.09-.1343.1105-.1394a1.7015,1.7015,0,0,1,.1049-.2173l.4093-.678q.1473-.2443.3143-.1434l.4147.25q.2289.1734.13.337l-.4635.7681,1.2756.77q.4725-.6881.5979-.6122l.5077.3062q.1961.1185.0232.4264l-.2483.4112,1.26.7605a.57.57,0,0,0,.1672-.1536l.1708-.2826a2.6355,2.6355,0,0,0,.1378-.272q.1761-.2049.3273-.1137l.3567.2154q.2909.1932.1728.3894l-.85,1.4072q-.089.148-.318.0623L9.91,15.88a1.91,1.91,0,0,1-.2325-.1668.6591.6591,0,0,1-.16-.07,1.2562,1.2562,0,0,1-.1008-.0873l-.05-.004L9.304,15.488q-.0417-.0251-.22-.1068c-.1464-.1058-.224-.1617-.2325-.1668a1.0689,1.0689,0,0,0-.1594-.07q-.2067-.151-.4028-.2693l-.0934-.0563a.7638.7638,0,0,0-.1818-.0836,1.1333,1.1333,0,0,0-.1747-.1319l-.1318-.0794a1.9312,1.9312,0,0,0-.2752-.14,1.4055,1.4055,0,0,0-.2325-.1668l-.0355-.0213a.1835.1835,0,0,0-.0887-.0273.152.152,0,0,0-.0428-.0524A1.3654,1.3654,0,0,0,6.7956,14q-.2515-.1782-.4959-.3256c-.0621-.0375-.1591-.0876-.2912-.1495a.8836.8836,0,0,0-.1471-.1415q-.1223-.0518-.1357-.0292l-.1008-.0873-.2751-.14q-.138-.1928-.0624-.3183" style="fill:#fff"/><path d="M13.5353,5.3484a1.628,1.628,0,0,1,.9379-.024,1.3651,1.3651,0,0,1,.797.7968l.1814.42q.0536.2386-.1047.3069l-.524.2261a.2114.2114,0,0,1-.2744-.1434l-.0253-.0588a.3686.3686,0,0,1-.0285-.18q-.2874-.5628-.6321-.4142-.2571.1721-.1677.379l1.34,3.1093q.1728.3054.4174.2.3412-.204.2416-.435l-.1383-.3209a1.1213,1.1213,0,0,0-.0993-.1735.3044.3044,0,0,1,.1957-.3706l.3412-.1473q.2742-.0847.35.0906l.1723.4a1.3469,1.3469,0,0,1-.4621,1.7442,1.8174,1.8174,0,0,1-.2323.1246,1.2664,1.2664,0,0,1-1.6891-.7227l-.095-.22a.2128.2128,0,0,0-.0639-.091l-.0313-.13-.104-.2412q-.07-.1623-.1842-.37a.1752.1752,0,0,0-.006-.0709l-.037-.0291a1.1227,1.1227,0,0,0-.058-.1914l-.0254-.0586c-.0179-.0415-.0336-.0593-.0473-.0533l-.0225-.1088-.1992-.4619q-.0906-.21-.2108-.4322a1.3,1.3,0,0,0-.082-.2468q-.0294-.0692-.1677-.3325-.1653-.9053.007-.98a1.3561,1.3561,0,0,1,.7306-.7893" style="fill:#fff"/><path d="M20.3793,8.3322l-.2367-2.8391a2.9433,2.9433,0,0,0-.09-.5423,1.2475,1.2475,0,0,0-1.35-.8781l-.1086.009a1.4683,1.4683,0,0,0-.8425.4658,1.5184,1.5184,0,0,0-.2786.8594l.0493.5909a2.8748,2.8748,0,0,1,.0046.3273.9822.9822,0,0,1,.0443.26l.0076.09a.1639.1639,0,0,1-.0152.0876l.0261.0431q.0121.1463.0341.6791c.0023.03.0164.1089.0424.2374a1.2455,1.2455,0,0,0-.0116.1327q.0473.2976.0533.3684.0083.0977.0322.6564a1.4741,1.4741,0,0,0,.4433.8446,1.3684,1.3684,0,0,0,.9527.3159,1.6194,1.6194,0,0,0,.5988-.1818,1.4718,1.4718,0,0,0,.6449-1.5263m-1.26.7415-.0225.0021q-.2542.0209-.3824-.3864L18.4465,5.48q-.0343-.4154.291-.4424.3818.0624.3995.2756l.0017.0188a1.3488,1.3488,0,0,1-.0007.2638q.0323.114.0333.1288.0216.5257.0378.7239a.93.93,0,0,0,.0667.258.4816.4816,0,0,1-.032.1571q.0424.2376.057.4134l.0019.0225a1.3383,1.3383,0,0,1-.0008.2636,1.15,1.15,0,0,1,.0408.2152q.0334.4.0614,1.008-.1428.2757-.2849.2873" style="fill:#fff"/><path d="M25.1327,5.0651a1.6259,1.6259,0,0,0-.7095-.4964q-.3252-.0609-.4491-.0924-.1964-.05-.5432-.1629-.3711-.0493-.4253.1617-.0465.2706-.0595.3218a1.47,1.47,0,0,1-.0932.2707l-.248,1.13a.7621.7621,0,0,0-.111.2662l-.1031.4a1.0767,1.0767,0,0,1-.07.1834q-.0013.05-.0931.5419l-.0489.1q-.0636.2474-.1091.5144-.1264.4017-.2231.776a1.0948,1.0948,0,0,0-.021.1729.02.02,0,0,0-.0276.0164c-.0171.1271-.028.1994-.0324.2161q-.0282.109-.1311.42.0312.2094.0945.249l1.0759.277a1.7121,1.7121,0,0,0,.4633.0533,1.3676,1.3676,0,0,0,1.2576-1.1221l.1526-.5925a1.6826,1.6826,0,0,0-.0424-.98,1.5269,1.5269,0,0,0,.51-.8376l.1526-.5925a1.4488,1.4488,0,0,0-.1656-1.1939M23.6982,8.44q-.0121.0473-.0382.2381a1.9507,1.9507,0,0,1-.0985.2926q-.1077.4179-.3407.451l-.2764-.0712a1.4874,1.4874,0,0,1-.157-.0831l.365-1.4177.338.0871q.2291.0591.2622.3815Zm.6692-2.51-.1469.5706q-.1526.5928-.4505.5159c-.2435-.0883-.36-.1562-.3509-.2027l.3488-1.3558a.0385.0385,0,0,1,.05-.03l.211.0539q.4159.1459.3382.4477" style="fill:#fff"/><path d="M31.4453,30.2218l-.4213-.4436a1.6794,1.6794,0,0,0-.8529-.4839,1.5268,1.5268,0,0,0-.44-.8767L29.31,27.974a1.4489,1.4489,0,0,0-1.1-.4929,1.6261,1.6261,0,0,0-.7971.3379q-.2241.2439-.3166.3318-.147.14-.4265.374-.2384.2888-.0885.4464.2053.1834.2414.2212a1.4619,1.4619,0,0,1,.18.2223l.8262.81a.7624.7624,0,0,0,.1666.2351l.2844.2995a1.0449,1.0449,0,0,1,.1179.1571q.0422.0273.41.3664l.0586.0943q.1758.1851.3782.3655.2731.32.54.6006a1.0832,1.0832,0,0,0,.1353.11.02.02,0,0,0-.0007.0318q.1481.1233.1663.1424.0771.0816.2858.3338.1947.0847.2618.0518l.8054-.7651a1.7145,1.7145,0,0,0,.2907-.3641,1.3674,1.3674,0,0,0-.284-1.6615m-2.3036-.55q-.3062.2391-.3579.19l-.9643-1.015a.0386.0386,0,0,1,.0014-.0583l.1577-.15q.3447-.2753.559-.05l.406.4274q.4212.4437.1981.6555m1.7475,1.7414-.2069.1965a1.4823,1.4823,0,0,1-.1536.089L29.52,30.6369l.2532-.24a.38.38,0,0,1,.4626-.02l.0741.1108c.0225.0238.0829.0766.1818.1586a1.935,1.935,0,0,1,.1955.2389q.2975.3126.2016.528" style="fill:#fff"/><path d="M10.4168,23.5549a1.8725,1.8725,0,0,1-.0385.8874,1.3691,1.3691,0,0,1-.8383.7538l-.5219.1675q-.2247.0243-.2786-.1436l-.1673-.5217c-.0292-.09.0118-.18.123-.268q.3-.0726.5073-.1392l.0213-.0067q.2682-.0863.2335-.4888-.1619-.2714-.3655-.2059l-.354.1135Q8.341,23.83,8.0592,24.82a1.7955,1.7955,0,0,1-1.1714,1.2269L6.409,26.2a1.3534,1.3534,0,0,1-1.6229-.6109l-.1144-.2825a1.2354,1.2354,0,0,1,.5508-1.442.816.816,0,0,1,.23-.1446q.0389-.0129.3822-.0989l.2432-.1016q.2286-.0736.4362.5735.0406.31-.1348.3662l-.5435.1744q-.2.0639-.2168.3929l.0334.1035q.0938.2933.7408.0857a1.1135,1.1135,0,0,0,.7838-.8506q.4176-1.2414.868-1.3861-.0081-.0246.2668-.176a1.7037,1.7037,0,0,0,.2356-.0519c.0285-.0092.04-.0208.0359-.0354l.1105-.0116.2717-.0873a1.5184,1.5184,0,0,1,1.041.3087,1.5439,1.5439,0,0,1,.4107.6291" style="fill:#fff"/><path d="M11.8988,26.511l-.0644-.0878a1.4645,1.4645,0,0,0-.8367-.4758,1.5175,1.5175,0,0,0-.8786.21l-.4786.3505a2.8839,2.8839,0,0,1-.2768.1747.9763.9763,0,0,1-.1987.1733l-.0728.0532a.1639.1639,0,0,1-.0829.0329l-.0229.0447q-.1182.0863-.5615.3832-.0364.0267-.1807.16a1.2562,1.2562,0,0,0-.1191.0595q-.2292.1956-.2867.2379-.0786.0573-.5432.37a1.4744,1.4744,0,0,0-.4892.8186,1.3694,1.3694,0,0,0,.2272.978,1.6216,1.6216,0,0,0,.4675.416,1.4723,1.4723,0,0,0,1.6388-.246l2.2988-1.6826a2.9435,2.9435,0,0,0,.4155-.36,1.2473,1.2473,0,0,0,.045-1.61m-.8316,1.0182-.0151.011a1.3557,1.3557,0,0,1-.2254.1371c-.0537.0579-.0847.09-.0926.0956q-.4374.2927-.5979.41a.9249.9249,0,0,0-.1855.1914.4916.4916,0,0,1-.1508.0546q-.18.16-.3229.2644l-.0181.0131a1.3649,1.3649,0,0,1-.2251.1372,1.161,1.161,0,0,1-.1626.1466q-.3243.2373-.8279.5782-.31.0219-.394-.0931l-.0132-.0181q-.1509-.206.13-.5279l2.5988-1.9022q.3359-.246.529.0174.146.3585-.0266.4847" style="fill:#fff"/><path d="M14.6554,29.477a1.8728,1.8728,0,0,0-.4925-.7394,1.5471,1.5471,0,0,0-.7025-.2655,1.52,1.52,0,0,0-1.023.3651l-.1679.23-.0822.0748c.0123.0088.0092.0252-.0084.05a1.7046,1.7046,0,0,1-.16.181q-.1326.2842-.1114.2995-.2782.3825.117,1.6317a1.1121,1.1121,0,0,1-.1311,1.1489q-.4.5493-.6486.368l-.088-.0641q-.18-.2752-.0565-.445l.3358-.4614q.1084-.1488-.1074-.3755-.549-.4-.6905-.2057l-.1365.2256q-.2258.2721-.25.3055a.8251.8251,0,0,0-.1.2523,1.2352,1.2352,0,0,0,.4063,1.489l.259.1607a1.3535,1.3535,0,0,0,1.6708-.4642l.296-.4067a1.7961,1.7961,0,0,0,.2217-1.6819q-.3561-.9647-.1107-1.3019l.2187-.3q.1261-.1726.4169-.0494.2655.3052.1.5326l-.0132.0183q-.1281.1758-.3275.4114-.0566.2051.0588.2889l.4429.3226q.1428.104.3095-.0487l.3224-.443a1.3686,1.3686,0,0,0,.2324-1.1031" style="fill:#fff"/><path d="M17.8508,30.4822a1.6574,1.6574,0,0,1-.2344-.0572l-.2273-.0783q-.2307-.08-.5923-.2282a.1648.1648,0,0,1-.0889-.0069.1732.1732,0,0,1-.0566-.0433q-.2307-.0557-.3977-.1135l-.2483-.0855-.1983-.0924q-.1317-.0452-.3268.1413a2.9848,2.9848,0,0,1-.0788.3659l-.0567.0959a.1522.1522,0,0,1,.0007.0674l-.0362.0353a.2535.2535,0,0,0,.1909.2524l.4932.17a1.7383,1.7383,0,0,1-.0281.2881l-.1994.5785a2.7053,2.7053,0,0,1-.1218.2835.1619.1619,0,0,1-.007.0889l-.0922.1986c-.0285.0826-.0642.21-.1072.38q-.2662.7023-.3556.9614t-.2.65q-.0959.2091-.1839.4644-.033.0959-.1355.4616a1.1541,1.1541,0,0,0-.0864.1807.3453.3453,0,0,0,.082.2349l.5782.1994q.1634.0562.2768-.1348l1.5527-4.4991.4542.1568q.33.114.4021-.0957l.1851-.5355q.05-.1455-.1561-.2842" style="fill:#fff"/><path d="M20.34,30.7658l-.79-.0558a1.7332,1.7332,0,0,0-.2414.0056.36.36,0,0,0-.1742-.035l-.3706-.0259q-.146-.0108-.255.2l.0007.3085-.0315.13c.0173.0014.0292.0459.0354.1341a.8948.8948,0,0,1-.0588.1956q.0069.2186-.0007.3273-.02.2842-.0642.59a1.3624,1.3624,0,0,1,.004.2636.151.151,0,0,1-.0269.062.1852.1852,0,0,1,.016.0915l-.0028.041a1.4335,1.4335,0,0,1-.0426.2831,1.9641,1.9641,0,0,1,.0007.3085l-.0109.1536a1.1164,1.1164,0,0,1-.0378.2157.7619.7619,0,0,1,.0084.2l-.0077.1084q-.016.2286-.0565.4815a1.1026,1.1026,0,0,1,.01.174q-.0014.0148-.0426.2828.0087.1964.0051.2451l-.0283.0845.0193.0466a1.2182,1.2182,0,0,0-.032.1293.655.655,0,0,0,.01.1739,1.9059,1.9059,0,0,0-.0426.2828l-.0139.1985q.0277.2425.2.2551l1.64.1158q.2283.016.2678-.331l.0294-.4155q.0125-.1762-.25-.24a2.6347,2.6347,0,0,1-.3048.0012l-.3294-.0234a.5675.5675,0,0,1-.2129-.079l.1038-1.4677.48.0338q.3524.0136.3688-.2147l.0417-.5916q.01-.146-.8172-.2534l.1049-1.4864.8948.0632q.1911.0132.2409-.2689l.0343-.4832q.0135-.1945-.2708-.2148" style="fill:#fff"/><path d="M24.1278,30.2193a.3086.3086,0,0,0-.31-.0836l-.4272.1028q-.1747.0425-.1938.317.0747.2292.1158.4005l.02.0841q.0919.3833.1311.6247.0541.1452.1561.5686l.0157.0656a.7633.7633,0,0,1,.0264.287l.0318.035a1.3472,1.3472,0,0,0,.01.1366.1518.1518,0,0,0,.0368.0568l-.0384.0324-.022.0054-1.2733-2.0177a.3923.3923,0,0,0-.5085-.2367q-.108.0491-.1225.0526-.033.0079-.3046.05-.1858.0444-.1781.3827.1737.529.2485.8394a.1761.1761,0,0,1-.006.0711.1647.1647,0,0,1,.0419.0785l.0466.1937a2.592,2.592,0,0,1,.0493.3006l.085.1613.0591.4373q.09.2759.1651.59.0473.1967.1117.56a.15.15,0,0,1,.0375.06l-.012.0454a4.3585,4.3585,0,0,0,.2133.6937l.0088.133.2.832c.0172.07.0353.1782.0547.3227.1.1047.1726.1552.218.1522l.573-.138q.1675-.04.181-.2908a.169.169,0,0,1-.0429-.0822l-.5791-2.4048.022-.0054c.0135.0561.0334.0809.06.0744q.1928.3355.2585.32a16.0453,16.0453,0,0,0,.892,1.3641q.336.7533.5731.6961l.5327-.1281c.1142-.0276.168-.1151.1606-.2627Z" style="fill:#fff"/><path d="M28.4209,34.2327a.1908.1908,0,0,1-.0582-.0667l-2.66-4.8426q-.0633-.115-.6391.2013l-.1239.0938q-.1515.0831.2786.8661.0955.1275.1047.1439a.1474.1474,0,0,0,.0112.0666l.072.0846.0327.1063q.0954.1272.1046.1437.0491.089.2227.4516.1278.1866.1461.22l.0959.2683.1967.2647a.2232.2232,0,0,0,.0345.1093.65.65,0,0,0,.1031.1407l.0217.0864q.0435.0792.2094.3347a1.0756,1.0756,0,0,1,.0654.1654l.2675.4012a1.1914,1.1914,0,0,0,.0885.2469q.0739.1349.325.545.1827.38.2441.4914.16.1347.2849.0662l.477-.2622q.1515-.0831.095-.3262" style="fill:#fff"/><path d="M34.7673,27.34,34.311,27.08a.2142.2142,0,0,0-.2859.0617l-.1535.3143q-.0536.0945-.1814.2726a.1748.1748,0,0,1-.0139.07.8153.8153,0,0,0-.1411.1183l-4.0974-2.339a.2362.2362,0,0,0-.3278.0894.1552.1552,0,0,0-.0139.07,2.5455,2.5455,0,0,0-.17.2528l-.0225.0391q-.12.3078.0662.4139l.2447.14a1.1249,1.1249,0,0,1,.1614.1181,1.022,1.022,0,0,1,.3062.1228,4.2933,4.2933,0,0,1,.3864.2467q.223.1014.562.2948l.02.0112a1.0466,1.0466,0,0,1,.1582.1165.3029.3029,0,0,1,.145.0565,5.5673,5.5673,0,0,1,.4808.3006c.1358.06.2407.1112.3144.1536q.1893.1081.4452.28.3241.1592.4839.25.4287.2706.4452.28l.1807.0772a2.8383,2.8383,0,0,0,.3115.2038q.3228.1842.4306-.0049l.8115-1.4213a.2336.2336,0,0,0-.09-.3278" style="fill:#fff"/><path d="M35.8968,23.6188l-.401-.1126q-.17-.0479-.2854.1967a2.5947,2.5947,0,0,1-.06.2988l-.0891.318a.5815.5815,0,0,1-.12.1923l-1.4164-.3977.13-.4626q.0842-.3426-.1362-.4047l-.5708-.16q-.1407-.04-.4132.7494l-1.4348-.4028.2428-.8638q.0515-.1842-.215-.29l-.466-.1308q-.1879-.0529-.265.2219l-.2143.7625a1.6812,1.6812,0,0,0-.0433.237c-.0183.0107-.0417.0653-.0692.164l-.1.3576q-.04.1411.1443.29l.3025.0616.12.0572c.0047-.0171.051-.0194.1386-.0078a.8667.8667,0,0,1,.1792.097q.2158.0372.3206.0667.2748.0771.565.1818a1.3637,1.3637,0,0,1,.259.05.1444.1444,0,0,1,.0553.0387.1867.1867,0,0,1,.0929.0028l.04.0111a1.41,1.41,0,0,1,.2687.0989,1.8879,1.8879,0,0,1,.3023.0616l.1483.0415a1.118,1.118,0,0,1,.2036.0806.7663.7663,0,0,1,.1973.032l.105.03q.2205.0618.46.1524a1.0335,1.0335,0,0,1,.1721.0253q.0146.0038.2685.0987.1943.0312.2411.0442l.0772.0452.0493-.01c.0683.0347.1084.0537.12.0574a.6678.6678,0,0,0,.1722.0248,1.8969,1.8969,0,0,0,.2687.0989l.1915.0537q.2433.0216.29-.1445l.4445-1.5828q.0622-.2206-.27-.3294" style="fill:#fff"/><path d="M7.4858,19.3566A1.0071,1.0071,0,1,1,6.4789,18.35a1.0069,1.0069,0,0,1,1.0069,1.0069" style="fill:#fff"/><path d="M34.4156,19.3566A1.0071,1.0071,0,1,1,33.4087,18.35a1.0069,1.0069,0,0,1,1.0069,1.0069" style="fill:#fff"/><path d="M20.1,1.8979A18.2023,18.2023,0,1,0,38.3025,20.1,18.2022,18.2022,0,0,0,20.1,1.8979m0,35.4892A17.287,17.287,0,1,1,37.3873,20.1,17.287,17.287,0,0,1,20.1,37.3871" style="fill:#008c4c"/></g></g></svg>