<svg xmlns="http://www.w3.org/2000/svg" viewBox="0 0 37.8284 32.262"><g id="ff7b1139-86a6-4a55-a24c-8c8d9711dce5" data-name="Capa 2"><g id="eca8c25a-ddaa-4fb2-a11f-5ff9f56bc616" data-name="Capa 1"><path d="M37.606,11.37a1.9726,1.9726,0,0,0-1.3238-.9436l-.0983-.0172a16.4035,16.4035,0,0,0-2.9412-.2614h-.0113s-1.0978-.0487-1.3957-.0549c-.0874-.0019-.1739-.0037-.2566-.0043l-.013-.0906c-.0672-.4731-.1593-1.0423-.2713-1.6731l-.0891-.64c-.1024-.7438-.1756-1.281-.2977-1.8l-.076-.3822a1.9484,1.9484,0,0,0-.9973-1.3306,2.01,2.01,0,0,0-1.6432-.083,17.3906,17.3906,0,0,0-2.97,1.3855c-.0488.0273-.0994.0585-.1815.11l-.1.0605c-.26.1232-.4836.2343-.682.3376l-.0306-.0483c-.0564-.0884-.114-.1775-.1725-.2649l-.2306-.34c-.3456-.5146-.8991-1.2595-1.6258-2.1892l-.4262-.5845c-.4678-.6445-.8054-1.11-1.1992-1.5618a3.4707,3.4707,0,0,0-.64-.59L19.8913.3736A1.83,1.83,0,0,0,18.7752,0h-.0017a2.2969,2.2969,0,0,0-1.551.7287,19.06,19.06,0,0,0-2.0308,2.88c-.0393.0681-.08.1431-.1085.1977l-.056.1c-.2576.3706-.4737.6992-.6419.9754l-.1657.2766-.0978-.0415c-.5367-.2275-1.3471-.5264-2.377-.876L11.1154,4c-.6816-.26-1.1776-.4494-1.6985-.5967A2.6517,2.6517,0,0,0,8.6,3.2473H8.5975l-.0531.001a2.0284,2.0284,0,0,0-1.0612.2573,2.1848,2.1848,0,0,0-.9287,1.3132l-.0271.1391a15.1622,15.1622,0,0,0-.2739,3.245l.0061.1682c.0048.139.0125.351.02.564l-.2143.04c-.1523.0287-.3153.0546-.488.0825-.3016.0483-.6293.1018-.9452.1694L3.83,9.37a15.4306,15.4306,0,0,0-1.6978.3858,4.0972,4.0972,0,0,0-.7407.2853,2.1854,2.1854,0,0,0-.87.8213,2.1054,2.1054,0,0,0-.1531,1.4729,6.1125,6.1125,0,0,0,.6742,2.0393,1.1983,1.1983,0,0,0-.7151.42,1.7767,1.7767,0,0,0-.2754,1.5062c1.4822,6.84,7.0905,14.7,15.9014,15.79a22.1042,22.1042,0,0,0,2.71.1709h.0006a18.48,18.48,0,0,0,16.0248-9.1143c1.7734-3.033,3.0866-5.4907,2.5337-7.23a2.2388,2.2388,0,0,0-.3554-.6682l.1762-.4327c.28-.68.461-1.1266.6112-1.61a2.9521,2.9521,0,0,0,.1651-.643A2.4532,2.4532,0,0,0,37.606,11.37" style="fill:#fff"/><path d="M9.0235,20.4483c-.0853-.1193-.1679-.2358-.2512-.3587-.2235-.3366-.4252-.67-.62-1.0234l-.0176-.0357a9.6234,9.6234,0,0,1-.4008-.895c-.0457-.1129-.0965-.2424-.148-.3806-.0452-.1252-.0913-.2535-.1384-.3893-.1849-.5322-.3562-1.1105-.506-1.7173l-.1523-.6536c-.0276-.1258-.0531-.2466-.0779-.3714A27.1377,27.1377,0,0,1,6.2,10.0261l-.0033-.0783L6.1952,9.91c-.4134.0779-.9026.1383-1.4425.2536l-.8048.1433a14.5514,14.5514,0,0,0-1.6163.368,3.1373,3.1373,0,0,0-.5488.2108,1.2556,1.2556,0,0,0-.4993.4785,1.372,1.372,0,0,0-.0222.818,6.1317,6.1317,0,0,0,.9147,2.4012,22.8969,22.8969,0,0,0,2.7655,3.95,13.4038,13.4038,0,0,0,5.2773,3.3128A10.707,10.707,0,0,1,9.3,20.8181c-.0932-.1194-.1853-.2436-.2767-.37" style="fill:#00558c"/><path d="M10.7567,16.4337c-.01-.1523-.0169-.3023-.0239-.4606-.0093-.4273-.0031-.84.02-1.2618l.0037-.03c.0075-.1139.0415-.475.1407-1.0318.0221-.1275.0486-.2713.0787-.4238.0288-.1327.0591-.2744.0912-.4219.13-.58.2975-1.1911.496-1.8167l.2236-.669c.0469-.1292.0909-.25.1353-.3738a28.6155,28.6155,0,0,1,1.8155-3.9393l-.0334-.0132c-.5114-.2169-1.3-.5076-2.3441-.8628l-.6169-.2353c-.6763-.2581-1.1649-.4449-1.6574-.5825a1.9794,1.9794,0,0,0-.5091-.1126,1.2376,1.2376,0,0,0-.6606.13,1.2309,1.2309,0,0,0-.4812.71A14.2769,14.2769,0,0,0,7.1592,8.177c.0019.069.0428,1.154.044,1.4288l0,.0717c.0006.0882.0009.1758.0019.2613.0016.0944.0047.1816.0091.2686l.0025.0808a25.7017,25.7017,0,0,0,.4805,4.3312c.0244.1171.0478.23.0721.3426l.1447.6229c.14.5593.2983,1.0971.47,1.5909.045.13.0884.251.13.3643.0446.12.0911.2382.1336.3438a8.85,8.85,0,0,0,.3616.8086l.0016.0044c.1775.3208.3608.6227.561.9244.0748.1107.1506.2177.2269.3258.0812.1113.164.2223.2485.33a8.328,8.328,0,0,0,2.6829,2.299c.1812.0391.3634.0773.5456.1114a9.5747,9.5747,0,0,1-2.48-5.7688c-.0168-.1583-.03-.32-.0387-.4847" style="fill:#e5007e"/><path d="M15.5537,14.2386q.0875-.2042.1866-.4109c.0614-.1275.1219-.2527.1874-.3816.1831-.35.3734-.681.5847-1.0118a9.6449,9.6449,0,0,1,.5978-.795c.0764-.0932.1626-.197.2562-.3058.0863-.0957.1733-.1943.2671-.2986.3692-.4105.7839-.8275,1.23-1.24l.4888-.4368c.0944-.0826.1855-.1613.2806-.2409a26.5217,26.5217,0,0,1,3.69-2.5973l.075-.0444-.0191-.03q-.0783-.1239-.1619-.25c-.0552-.0837-.111-.1655-.1668-.2469l-.0609-.09c-.3347-.4982-.8738-1.2236-1.6048-2.1595l-.4155-.5686c-.458-.6324-.789-1.09-1.1527-1.5062a3.3064,3.3064,0,0,0-.4349-.4169,1.0172,1.0172,0,0,0-.6283-.2565,1.3561,1.3561,0,0,0-.8351.375,17.887,17.887,0,0,0-1.9481,2.7585c-.0341.0585-.0684.1229-.1023.1868l-.0781.1393c-.2674.3836-.4808.7088-.6378.9663l-.0339.0553c-.0508.0845-.1008.1686-.1486.25-.05.0841-.0942.1622-.1367.24l-.05.0878A27.9649,27.9649,0,0,0,12.7852,10.26c-.0443.1219-.0874.24-.1286.3577l-.2194.6535c-.189.5942-.3494,1.18-.4731,1.7351-.0323.1423-.0618.2791-.0874.4062-.0285.1407-.0537.2746-.0756.3973-.0947.5316-.1234.8661-.131.9554-.0217.396-.0277.783-.0182,1.182.0054.1438.0128.2868.0217.4314.0087.1512.02.3008.0357.449a8.5358,8.5358,0,0,0,3.18,6.0932c.512.0512,1.0275.077,1.5448.0867a8.6724,8.6724,0,0,1-.88-8.7686" style="fill:#f29224"/><path d="M30.2173,7.8144c-.1029-.7484-.1712-1.2424-.2886-1.7451L29.86,5.7216a1.0282,1.0282,0,0,0-.51-.7048,1.0837,1.0837,0,0,0-.8556-.0421,16.63,16.63,0,0,0-2.8512,1.3289c-.05.0285-.1044.0632-.1587.0967l-.1409.0841c-.4042.1915-.7188.3506-.9632.4862l-.0976.0537c-.0649.037-.13.0723-.1919.1091-.0721.0407-.1374.08-.2021.1184l-.1.0593a25.5862,25.5862,0,0,0-3.5634,2.5068c-.0913.0779-.1787.1521-.2661.2287l-.4754.4254c-.4228.3915-.8172.7889-1.1688,1.1794-.0914.1014-.1769.1969-.2575.2874-.0847.0979-.1661.1966-.2378.2843a8.6225,8.6225,0,0,0-.5341.7076c-.1959.306-.3727.6132-.5421.9382-.0612.1184-.1184.2374-.1759.3568-.06.1244-.1163.2505-.17.3755A7.9136,7.9136,0,0,0,17.57,22.9989c.2667-.01.5329-.0275.7994-.0484a7.5433,7.5433,0,0,1-.31-.7987l-.0086-.03a8.5072,8.5072,0,0,1,3.1308-9.39c.1128-.0837.2283-.1655.3466-.2465l.0288-.021c.1-.067.2008-.1343.3049-.2019.31-.1952.6209-.3735.9538-.5471l.027-.0128c.0889-.0442.3746-.1785.8387-.3519.106-.04.2264-.0822.3541-.1266.113-.0382.2328-.0785.3591-.1178.4958-.1587,1.03-.3023,1.5857-.4279l.6066-.1244c.1137-.0219.2254-.0423.3407-.0638a24.6169,24.6169,0,0,1,3.6345-.357l.017,0q-.1-.6971-.2719-1.6757Z" style="fill:#fd0"/><path d="M24.9746,21.351c.152-.0614.3086-.1364.4682-.2124a3.7369,3.7369,0,0,1,1.4225-.4606,1.3514,1.3514,0,0,1,.471.069,2.37,2.37,0,0,1,.8864.5172,17.73,17.73,0,0,0,4.1492-4.256c1.05-1.3728,1.7967-2.4035,2.7209-2.4277a1.4146,1.4146,0,0,1,.5752.1112,2.0274,2.0274,0,0,1,.2725.1971l.1769-.4346c.2714-.659.4489-1.0937.5911-1.5566a2.206,2.206,0,0,0,.1192-.4363,1.5069,1.5069,0,0,0-.1064-.6426,1.016,1.016,0,0,0-.6426-.4537,15.746,15.746,0,0,0-2.9351-.2665s-1.0816-.048-1.3411-.0538l-.0362,0c-.0926-.0026-.1859-.0041-.2748-.0051s-.1694.001-.2492.0018h-.0795c-.1979.0019-.3893.0044-.5775.0091a23.6768,23.6768,0,0,0-3.4988.3449c-.1107.0194-.2161.0394-.3216.0595l-.59.1215c-.523.1177-1.0306.2547-1.5019.4047-.1223.038-.2366.0765-.3423.1124-.117.04-.2283.081-.329.1188a8.122,8.122,0,0,0-.7653.3205c-.3072.16-.5958.3258-.8811.5053-.0959.061-.1893.1246-.2837.1883l-.0267.0181c-.106.0724-.2122.1486-.3157.2254a7.6305,7.6305,0,0,0-2.7926,8.4108,6.3937,6.3937,0,0,0,.4093.9694,22.3744,22.3744,0,0,0,5.6288-1.4989" style="fill:#009ee1"/><path d="M35.5347,15.3976c-1.6551-.75-2.5919,3.8606-6.7518,6.4527.5961,1.3393.3632,2.3934-2.044,3.7864a18.227,18.227,0,0,1-3.6856,1.5872c-.7235.2066-1.1727.37-1.2934.1231-.1159-.2423-.188-.4861.7409-.7721a23.3,23.3,0,0,0,3.9279-1.6661c1.3269-.7572,1.75-1.2568,1.7046-2.2157a1.3115,1.3115,0,0,0-.9194-1.11c-.5847-.21-1.47.34-2.1566.6214a20.54,20.54,0,0,1-15.0346.5164c-3.8956-1.4378-5.714-3.2984-8.325-7.0556-.4956-.6913-.9117-.3106-.7619.4335C2.3829,22.7766,7.7473,30.1218,16.024,31.1466a17.6512,17.6512,0,0,0,17.7975-8.48c1.662-2.8415,3.6922-6.3712,1.7132-7.2694" style="fill:#76b72a"/></g></g></svg>